# xmcd CD database file
#
# Track frame offsets:
#	150
#	2257
#	20045
#	37832
#	53727
#	69627
#	84575
#	99522
#	110462
#	121400
#	135600
#	149800
#	170380
#	190947
#	203207
#	215465
#	230940
#
# Disc length: 3285 seconds
#
# Revision: 0
# Processed by: cddbd v1.4PL0 Copyright (c) Steve Scherf et al.
# Submitted via: CDex 1.50Beta7
#
DISCID=f20cd311
DTITLE=Take the Lead Alto Saxaphone - Jazz
DYEAR=1999
DGENRE=Jazz
TTITLE0=Tuning Tones
TTITLE1=Birdland - Full Verison
TTITLE2=Birdland - Backing Track
TTITLE3=Desafinado - Full Version
TTITLE4=Desafinado - Backing Track
TTITLE5=Don't Get Around Much Anymore - Full Version
TTITLE6=Don't Get Around Much Anymore - Backing Track
TTITLE7=Fascinating Rhythm - Full Version
TTITLE8=Fascinating Rhythm - Backing Track
TTITLE9=Misty - Full Verison
TTITLE10=Misty - Backing Track
TTITLE11=My Funny Valentine - Full Version
TTITLE12=My Funny Valentine - Backing Track
TTITLE13=One O'Clock Jump - Full Version
TTITLE14=One O'Clock Jump - Backing Track
TTITLE15=Summertime - Full Version
TTITLE16=Summertime - Backing Track
EXTD=YEAR: 1999
EXTT0=
EXTT1=
EXTT2=
EXTT3=
EXTT4=
EXTT5=
EXTT6=
EXTT7=
EXTT8=
EXTT9=
EXTT10=
EXTT11=
EXTT12=
EXTT13=
EXTT14=
EXTT15=
EXTT16=
PLAYORDER=
